# xmcd
#
# Track frame offsets:
#	150
#	26067
#	39512
#	56672
#	71012
#	83095
#	102820
#	121255
#	141620
#	159920
#	175577
#	195587
#	219040
#
# Disc length: 3269 seconds
#
# Revision: 2
# Processed by: cddbd v1.5.2PL0 Copyright (c) Steve Scherf et al.
# Submitted via: EasyCDDAExtractor 12.0.0.1
#
DISCID=aa0cc30d
DTITLE=Various Artist - Slow Grind - Volume One
DYEAR=1900
DGENRE=Blues
TTITLE0=D.J. Rogers - Say You Love Me
TTITLE1=Leroy Hutson - So in Love with You
TTITLE2=The Moments - Seven Days
TTITLE3=The Whatnauts - I'll Erase Away Your Pain
TTITLE4=Linda Jones - Hypnotize
TTITLE5=Earth, Wind, and Fire - Love's Holiday
TTITLE6=Ray, Goodman, Brown - Special Lady
TTITLE7=Robert Winters and Fall - Magic Man
TTITLE8=Spoon Bread - How Can You Mend A Broken Heart
TTITLE9=Luther Ingram - (If Loving You Is Wrong) I Don't Want To Be Right
TTITLE10=New Birth - Dream Merchant
TTITLE11=Ohio Players - Let's Love
TTITLE12=Varied Artists - Turn Off the Lights
EXTD=
EXTT0=
EXTT1=
EXTT2=
EXTT3=
EXTT4=
EXTT5=
EXTT6=
EXTT7=
EXTT8=
EXTT9=
EXTT10=
EXTT11=
EXTT12=
PLAYORDER=
